<svg width="85" height="92" viewBox="0 0 85 92" fill="none" xmlns="http://www.w3.org/2000/svg">
<path fill-rule="evenodd" clip-rule="evenodd" d="M42.8525 91.8018C65.9708 91.8018 84.7118 71.2513 84.7118 45.9009C84.7118 20.5505 65.9708 0 42.8525 0C19.7343 0 0.993286 20.5505 0.993286 45.9009C0.993286 71.2513 19.7343 91.8018 42.8525 91.8018Z" fill="#E9F7FE"/>
<path fill-rule="evenodd" clip-rule="evenodd" d="M58.6581 31.7621C54.4844 27.3002 47.6919 27.3002 43.5174 31.7621C43.286 32.0095 43.0645 32.2701 42.8528 32.543C42.6412 32.2692 42.4197 32.0095 42.1874 31.7612C38.0138 27.2993 31.2212 27.2993 27.0468 31.7612C22.8723 36.2231 22.8731 43.4847 27.0468 47.9475L42.2698 64.2218C42.4304 64.3935 42.6412 64.4798 42.852 64.4798C43.0628 64.4798 43.2737 64.3935 43.4342 64.2218L58.6573 47.9475C62.8326 43.4856 62.8326 36.224 58.6581 31.7621Z" fill="#FF1673"/>
</svg>
